<svg aria-hidden="true" style="position: absolute; width: 0; height: 0; overflow: hidden;" version="1.1" xmlns="http://www.w3.org/2000/svg" xmlns:xlink="http://www.w3.org/1999/xlink">
<defs>
<symbol id="icon-Group-21" viewBox="0 0 41 32">
<path fill="#dc7000" style="fill: var(--color1, #dc7000)" opacity="0.35" d="M1.455 0.727c0 0.402-0.326 0.727-0.727 0.727s-0.727-0.326-0.727-0.727c0-0.402 0.326-0.727 0.727-0.727s0.727 0.326 0.727 0.727z"></path>
<path fill="#dc7000" style="fill: var(--color1, #dc7000)" opacity="0.35" d="M5.818 0.727c0 0.402-0.326 0.727-0.727 0.727s-0.727-0.326-0.727-0.727c0-0.402 0.326-0.727 0.727-0.727s0.727 0.326 0.727 0.727z"></path>
<path fill="#dc7000" style="fill: var(--color1, #dc7000)" opacity="0.35" d="M10.182 0.727c0 0.402-0.326 0.727-0.727 0.727s-0.727-0.326-0.727-0.727c0-0.402 0.326-0.727 0.727-0.727s0.727 0.326 0.727 0.727z"></path>
<path fill="#dc7000" style="fill: var(--color1, #dc7000)" opacity="0.35" d="M14.545 0.727c0 0.402-0.326 0.727-0.727 0.727s-0.727-0.326-0.727-0.727c0-0.402 0.326-0.727 0.727-0.727s0.727 0.326 0.727 0.727z"></path>
<path fill="#dc7000" style="fill: var(--color1, #dc7000)" opacity="0.35" d="M18.909 0.727c0 0.402-0.326 0.727-0.727 0.727s-0.727-0.326-0.727-0.727c0-0.402 0.326-0.727 0.727-0.727s0.727 0.326 0.727 0.727z"></path>
<path fill="#dc7000" style="fill: var(--color1, #dc7000)" opacity="0.35" d="M23.273 0.727c0 0.402-0.326 0.727-0.727 0.727s-0.727-0.326-0.727-0.727c0-0.402 0.326-0.727 0.727-0.727s0.727 0.326 0.727 0.727z"></path>
<path fill="#dc7000" style="fill: var(--color1, #dc7000)" opacity="0.35" d="M27.636 0.727c0 0.402-0.326 0.727-0.727 0.727s-0.727-0.326-0.727-0.727c0-0.402 0.326-0.727 0.727-0.727s0.727 0.326 0.727 0.727z"></path>
<path fill="#dc7000" style="fill: var(--color1, #dc7000)" opacity="0.35" d="M32 0.727c0 0.402-0.326 0.727-0.727 0.727s-0.727-0.326-0.727-0.727c0-0.402 0.326-0.727 0.727-0.727s0.727 0.326 0.727 0.727z"></path>
<path fill="#dc7000" style="fill: var(--color1, #dc7000)" opacity="0.35" d="M36.364 0.727c0 0.402-0.326 0.727-0.727 0.727s-0.727-0.326-0.727-0.727c0-0.402 0.326-0.727 0.727-0.727s0.727 0.326 0.727 0.727z"></path>
<path fill="#dc7000" style="fill: var(--color1, #dc7000)" opacity="0.35" d="M40.727 0.727c0 0.402-0.326 0.727-0.727 0.727s-0.727-0.326-0.727-0.727c0-0.402 0.326-0.727 0.727-0.727s0.727 0.326 0.727 0.727z"></path>
<path fill="#dc7000" style="fill: var(--color1, #dc7000)" opacity="0.35" d="M1.455 5.091c0 0.402-0.326 0.727-0.727 0.727s-0.727-0.326-0.727-0.727c0-0.402 0.326-0.727 0.727-0.727s0.727 0.326 0.727 0.727z"></path>
<path fill="#dc7000" style="fill: var(--color1, #dc7000)" opacity="0.35" d="M5.818 5.091c0 0.402-0.326 0.727-0.727 0.727s-0.727-0.326-0.727-0.727c0-0.402 0.326-0.727 0.727-0.727s0.727 0.326 0.727 0.727z"></path>
<path fill="#dc7000" style="fill: var(--color1, #dc7000)" opacity="0.35" d="M10.182 5.091c0 0.402-0.326 0.727-0.727 0.727s-0.727-0.326-0.727-0.727c0-0.402 0.326-0.727 0.727-0.727s0.727 0.326 0.727 0.727z"></path>
<path fill="#dc7000" style="fill: var(--color1, #dc7000)" opacity="0.35" d="M14.545 5.091c0 0.402-0.326 0.727-0.727 0.727s-0.727-0.326-0.727-0.727c0-0.402 0.326-0.727 0.727-0.727s0.727 0.326 0.727 0.727z"></path>
<path fill="#dc7000" style="fill: var(--color1, #dc7000)" opacity="0.35" d="M18.909 5.091c0 0.402-0.326 0.727-0.727 0.727s-0.727-0.326-0.727-0.727c0-0.402 0.326-0.727 0.727-0.727s0.727 0.326 0.727 0.727z"></path>
<path fill="#dc7000" style="fill: var(--color1, #dc7000)" opacity="0.35" d="M23.273 5.091c0 0.402-0.326 0.727-0.727 0.727s-0.727-0.326-0.727-0.727c0-0.402 0.326-0.727 0.727-0.727s0.727 0.326 0.727 0.727z"></path>
<path fill="#dc7000" style="fill: var(--color1, #dc7000)" opacity="0.35" d="M27.636 5.091c0 0.402-0.326 0.727-0.727 0.727s-0.727-0.326-0.727-0.727c0-0.402 0.326-0.727 0.727-0.727s0.727 0.326 0.727 0.727z"></path>
<path fill="#dc7000" style="fill: var(--color1, #dc7000)" opacity="0.35" d="M32 5.091c0 0.402-0.326 0.727-0.727 0.727s-0.727-0.326-0.727-0.727c0-0.402 0.326-0.727 0.727-0.727s0.727 0.326 0.727 0.727z"></path>
<path fill="#dc7000" style="fill: var(--color1, #dc7000)" opacity="0.35" d="M36.364 5.091c0 0.402-0.326 0.727-0.727 0.727s-0.727-0.326-0.727-0.727c0-0.402 0.326-0.727 0.727-0.727s0.727 0.326 0.727 0.727z"></path>
<path fill="#dc7000" style="fill: var(--color1, #dc7000)" opacity="0.35" d="M40.727 5.091c0 0.402-0.326 0.727-0.727 0.727s-0.727-0.326-0.727-0.727c0-0.402 0.326-0.727 0.727-0.727s0.727 0.326 0.727 0.727z"></path>
<path fill="#dc7000" style="fill: var(--color1, #dc7000)" opacity="0.35" d="M1.455 9.455c0 0.402-0.326 0.727-0.727 0.727s-0.727-0.326-0.727-0.727c0-0.402 0.326-0.727 0.727-0.727s0.727 0.326 0.727 0.727z"></path>
<path fill="#dc7000" style="fill: var(--color1, #dc7000)" opacity="0.35" d="M5.818 9.455c0 0.402-0.326 0.727-0.727 0.727s-0.727-0.326-0.727-0.727c0-0.402 0.326-0.727 0.727-0.727s0.727 0.326 0.727 0.727z"></path>
<path fill="#dc7000" style="fill: var(--color1, #dc7000)" opacity="0.35" d="M10.182 9.455c0 0.402-0.326 0.727-0.727 0.727s-0.727-0.326-0.727-0.727c0-0.402 0.326-0.727 0.727-0.727s0.727 0.326 0.727 0.727z"></path>
<path fill="#dc7000" style="fill: var(--color1, #dc7000)" opacity="0.35" d="M14.545 9.455c0 0.402-0.326 0.727-0.727 0.727s-0.727-0.326-0.727-0.727c0-0.402 0.326-0.727 0.727-0.727s0.727 0.326 0.727 0.727z"></path>
<path fill="#dc7000" style="fill: var(--color1, #dc7000)" opacity="0.35" d="M18.909 9.455c0 0.402-0.326 0.727-0.727 0.727s-0.727-0.326-0.727-0.727c0-0.402 0.326-0.727 0.727-0.727s0.727 0.326 0.727 0.727z"></path>
<path fill="#dc7000" style="fill: var(--color1, #dc7000)" opacity="0.35" d="M23.273 9.455c0 0.402-0.326 0.727-0.727 0.727s-0.727-0.326-0.727-0.727c0-0.402 0.326-0.727 0.727-0.727s0.727 0.326 0.727 0.727z"></path>
<path fill="#dc7000" style="fill: var(--color1, #dc7000)" opacity="0.35" d="M27.636 9.455c0 0.402-0.326 0.727-0.727 0.727s-0.727-0.326-0.727-0.727c0-0.402 0.326-0.727 0.727-0.727s0.727 0.326 0.727 0.727z"></path>
<path fill="#dc7000" style="fill: var(--color1, #dc7000)" opacity="0.35" d="M32 9.455c0 0.402-0.326 0.727-0.727 0.727s-0.727-0.326-0.727-0.727c0-0.402 0.326-0.727 0.727-0.727s0.727 0.326 0.727 0.727z"></path>
<path fill="#dc7000" style="fill: var(--color1, #dc7000)" opacity="0.35" d="M36.364 9.455c0 0.402-0.326 0.727-0.727 0.727s-0.727-0.326-0.727-0.727c0-0.402 0.326-0.727 0.727-0.727s0.727 0.326 0.727 0.727z"></path>
<path fill="#dc7000" style="fill: var(--color1, #dc7000)" opacity="0.35" d="M40.727 9.455c0 0.402-0.326 0.727-0.727 0.727s-0.727-0.326-0.727-0.727c0-0.402 0.326-0.727 0.727-0.727s0.727 0.326 0.727 0.727z"></path>
<path fill="#dc7000" style="fill: var(--color1, #dc7000)" opacity="0.35" d="M1.455 13.818c0 0.402-0.326 0.727-0.727 0.727s-0.727-0.326-0.727-0.727c0-0.402 0.326-0.727 0.727-0.727s0.727 0.326 0.727 0.727z"></path>
<path fill="#dc7000" style="fill: var(--color1, #dc7000)" opacity="0.35" d="M5.818 13.818c0 0.402-0.326 0.727-0.727 0.727s-0.727-0.326-0.727-0.727c0-0.402 0.326-0.727 0.727-0.727s0.727 0.326 0.727 0.727z"></path>
<path fill="#dc7000" style="fill: var(--color1, #dc7000)" opacity="0.35" d="M10.182 13.818c0 0.402-0.326 0.727-0.727 0.727s-0.727-0.326-0.727-0.727c0-0.402 0.326-0.727 0.727-0.727s0.727 0.326 0.727 0.727z"></path>
<path fill="#dc7000" style="fill: var(--color1, #dc7000)" opacity="0.35" d="M14.545 13.818c0 0.402-0.326 0.727-0.727 0.727s-0.727-0.326-0.727-0.727c0-0.402 0.326-0.727 0.727-0.727s0.727 0.326 0.727 0.727z"></path>
<path fill="#dc7000" style="fill: var(--color1, #dc7000)" opacity="0.35" d="M18.909 13.818c0 0.402-0.326 0.727-0.727 0.727s-0.727-0.326-0.727-0.727c0-0.402 0.326-0.727 0.727-0.727s0.727 0.326 0.727 0.727z"></path>
<path fill="#dc7000" style="fill: var(--color1, #dc7000)" opacity="0.35" d="M23.273 13.818c0 0.402-0.326 0.727-0.727 0.727s-0.727-0.326-0.727-0.727c0-0.402 0.326-0.727 0.727-0.727s0.727 0.326 0.727 0.727z"></path>
<path fill="#dc7000" style="fill: var(--color1, #dc7000)" opacity="0.35" d="M27.636 13.818c0 0.402-0.326 0.727-0.727 0.727s-0.727-0.326-0.727-0.727c0-0.402 0.326-0.727 0.727-0.727s0.727 0.326 0.727 0.727z"></path>
<path fill="#dc7000" style="fill: var(--color1, #dc7000)" opacity="0.35" d="M32 13.818c0 0.402-0.326 0.727-0.727 0.727s-0.727-0.326-0.727-0.727c0-0.402 0.326-0.727 0.727-0.727s0.727 0.326 0.727 0.727z"></path>
<path fill="#dc7000" style="fill: var(--color1, #dc7000)" opacity="0.35" d="M36.364 13.818c0 0.402-0.326 0.727-0.727 0.727s-0.727-0.326-0.727-0.727c0-0.402 0.326-0.727 0.727-0.727s0.727 0.326 0.727 0.727z"></path>
<path fill="#dc7000" style="fill: var(--color1, #dc7000)" opacity="0.35" d="M40.727 13.818c0 0.402-0.326 0.727-0.727 0.727s-0.727-0.326-0.727-0.727c0-0.402 0.326-0.727 0.727-0.727s0.727 0.326 0.727 0.727z"></path>
<path fill="#dc7000" style="fill: var(--color1, #dc7000)" opacity="0.35" d="M1.455 18.182c0 0.402-0.326 0.727-0.727 0.727s-0.727-0.326-0.727-0.727c0-0.402 0.326-0.727 0.727-0.727s0.727 0.326 0.727 0.727z"></path>
<path fill="#dc7000" style="fill: var(--color1, #dc7000)" opacity="0.35" d="M5.818 18.182c0 0.402-0.326 0.727-0.727 0.727s-0.727-0.326-0.727-0.727c0-0.402 0.326-0.727 0.727-0.727s0.727 0.326 0.727 0.727z"></path>
<path fill="#dc7000" style="fill: var(--color1, #dc7000)" opacity="0.35" d="M10.182 18.182c0 0.402-0.326 0.727-0.727 0.727s-0.727-0.326-0.727-0.727c0-0.402 0.326-0.727 0.727-0.727s0.727 0.326 0.727 0.727z"></path>
<path fill="#dc7000" style="fill: var(--color1, #dc7000)" opacity="0.35" d="M14.545 18.182c0 0.402-0.326 0.727-0.727 0.727s-0.727-0.326-0.727-0.727c0-0.402 0.326-0.727 0.727-0.727s0.727 0.326 0.727 0.727z"></path>
<path fill="#dc7000" style="fill: var(--color1, #dc7000)" opacity="0.35" d="M18.909 18.182c0 0.402-0.326 0.727-0.727 0.727s-0.727-0.326-0.727-0.727c0-0.402 0.326-0.727 0.727-0.727s0.727 0.326 0.727 0.727z"></path>
<path fill="#dc7000" style="fill: var(--color1, #dc7000)" opacity="0.35" d="M23.273 18.182c0 0.402-0.326 0.727-0.727 0.727s-0.727-0.326-0.727-0.727c0-0.402 0.326-0.727 0.727-0.727s0.727 0.326 0.727 0.727z"></path>
<path fill="#dc7000" style="fill: var(--color1, #dc7000)" opacity="0.35" d="M27.636 18.182c0 0.402-0.326 0.727-0.727 0.727s-0.727-0.326-0.727-0.727c0-0.402 0.326-0.727 0.727-0.727s0.727 0.326 0.727 0.727z"></path>
<path fill="#dc7000" style="fill: var(--color1, #dc7000)" opacity="0.35" d="M32 18.182c0 0.402-0.326 0.727-0.727 0.727s-0.727-0.326-0.727-0.727c0-0.402 0.326-0.727 0.727-0.727s0.727 0.326 0.727 0.727z"></path>
<path fill="#dc7000" style="fill: var(--color1, #dc7000)" opacity="0.35" d="M36.364 18.182c0 0.402-0.326 0.727-0.727 0.727s-0.727-0.326-0.727-0.727c0-0.402 0.326-0.727 0.727-0.727s0.727 0.326 0.727 0.727z"></path>
<path fill="#dc7000" style="fill: var(--color1, #dc7000)" opacity="0.35" d="M40.727 18.182c0 0.402-0.326 0.727-0.727 0.727s-0.727-0.326-0.727-0.727c0-0.402 0.326-0.727 0.727-0.727s0.727 0.326 0.727 0.727z"></path>
<path fill="#dc7000" style="fill: var(--color1, #dc7000)" opacity="0.35" d="M1.455 22.545c0 0.402-0.326 0.727-0.727 0.727s-0.727-0.326-0.727-0.727c0-0.402 0.326-0.727 0.727-0.727s0.727 0.326 0.727 0.727z"></path>
<path fill="#dc7000" style="fill: var(--color1, #dc7000)" opacity="0.35" d="M5.818 22.545c0 0.402-0.326 0.727-0.727 0.727s-0.727-0.326-0.727-0.727c0-0.402 0.326-0.727 0.727-0.727s0.727 0.326 0.727 0.727z"></path>
<path fill="#dc7000" style="fill: var(--color1, #dc7000)" opacity="0.35" d="M10.182 22.545c0 0.402-0.326 0.727-0.727 0.727s-0.727-0.326-0.727-0.727c0-0.402 0.326-0.727 0.727-0.727s0.727 0.326 0.727 0.727z"></path>
<path fill="#dc7000" style="fill: var(--color1, #dc7000)" opacity="0.35" d="M14.545 22.545c0 0.402-0.326 0.727-0.727 0.727s-0.727-0.326-0.727-0.727c0-0.402 0.326-0.727 0.727-0.727s0.727 0.326 0.727 0.727z"></path>
<path fill="#dc7000" style="fill: var(--color1, #dc7000)" opacity="0.35" d="M18.909 22.545c0 0.402-0.326 0.727-0.727 0.727s-0.727-0.326-0.727-0.727c0-0.402 0.326-0.727 0.727-0.727s0.727 0.326 0.727 0.727z"></path>
<path fill="#dc7000" style="fill: var(--color1, #dc7000)" opacity="0.35" d="M23.273 22.545c0 0.402-0.326 0.727-0.727 0.727s-0.727-0.326-0.727-0.727c0-0.402 0.326-0.727 0.727-0.727s0.727 0.326 0.727 0.727z"></path>
<path fill="#dc7000" style="fill: var(--color1, #dc7000)" opacity="0.35" d="M27.636 22.545c0 0.402-0.326 0.727-0.727 0.727s-0.727-0.326-0.727-0.727c0-0.402 0.326-0.727 0.727-0.727s0.727 0.326 0.727 0.727z"></path>
<path fill="#dc7000" style="fill: var(--color1, #dc7000)" opacity="0.35" d="M32 22.545c0 0.402-0.326 0.727-0.727 0.727s-0.727-0.326-0.727-0.727c0-0.402 0.326-0.727 0.727-0.727s0.727 0.326 0.727 0.727z"></path>
<path fill="#dc7000" style="fill: var(--color1, #dc7000)" opacity="0.35" d="M36.364 22.545c0 0.402-0.326 0.727-0.727 0.727s-0.727-0.326-0.727-0.727c0-0.402 0.326-0.727 0.727-0.727s0.727 0.326 0.727 0.727z"></path>
<path fill="#dc7000" style="fill: var(--color1, #dc7000)" opacity="0.35" d="M40.727 22.545c0 0.402-0.326 0.727-0.727 0.727s-0.727-0.326-0.727-0.727c0-0.402 0.326-0.727 0.727-0.727s0.727 0.326 0.727 0.727z"></path>
<path fill="#dc7000" style="fill: var(--color1, #dc7000)" opacity="0.35" d="M1.455 26.909c0 0.402-0.326 0.727-0.727 0.727s-0.727-0.326-0.727-0.727c0-0.402 0.326-0.727 0.727-0.727s0.727 0.326 0.727 0.727z"></path>
<path fill="#dc7000" style="fill: var(--color1, #dc7000)" opacity="0.35" d="M5.818 26.909c0 0.402-0.326 0.727-0.727 0.727s-0.727-0.326-0.727-0.727c0-0.402 0.326-0.727 0.727-0.727s0.727 0.326 0.727 0.727z"></path>
<path fill="#dc7000" style="fill: var(--color1, #dc7000)" opacity="0.35" d="M10.182 26.909c0 0.402-0.326 0.727-0.727 0.727s-0.727-0.326-0.727-0.727c0-0.402 0.326-0.727 0.727-0.727s0.727 0.326 0.727 0.727z"></path>
<path fill="#dc7000" style="fill: var(--color1, #dc7000)" opacity="0.35" d="M14.545 26.909c0 0.402-0.326 0.727-0.727 0.727s-0.727-0.326-0.727-0.727c0-0.402 0.326-0.727 0.727-0.727s0.727 0.326 0.727 0.727z"></path>
<path fill="#dc7000" style="fill: var(--color1, #dc7000)" opacity="0.35" d="M18.909 26.909c0 0.402-0.326 0.727-0.727 0.727s-0.727-0.326-0.727-0.727c0-0.402 0.326-0.727 0.727-0.727s0.727 0.326 0.727 0.727z"></path>
<path fill="#dc7000" style="fill: var(--color1, #dc7000)" opacity="0.35" d="M23.273 26.909c0 0.402-0.326 0.727-0.727 0.727s-0.727-0.326-0.727-0.727c0-0.402 0.326-0.727 0.727-0.727s0.727 0.326 0.727 0.727z"></path>
<path fill="#dc7000" style="fill: var(--color1, #dc7000)" opacity="0.35" d="M27.636 26.909c0 0.402-0.326 0.727-0.727 0.727s-0.727-0.326-0.727-0.727c0-0.402 0.326-0.727 0.727-0.727s0.727 0.326 0.727 0.727z"></path>
<path fill="#dc7000" style="fill: var(--color1, #dc7000)" opacity="0.35" d="M32 26.909c0 0.402-0.326 0.727-0.727 0.727s-0.727-0.326-0.727-0.727c0-0.402 0.326-0.727 0.727-0.727s0.727 0.326 0.727 0.727z"></path>
<path fill="#dc7000" style="fill: var(--color1, #dc7000)" opacity="0.35" d="M36.364 26.909c0 0.402-0.326 0.727-0.727 0.727s-0.727-0.326-0.727-0.727c0-0.402 0.326-0.727 0.727-0.727s0.727 0.326 0.727 0.727z"></path>
<path fill="#dc7000" style="fill: var(--color1, #dc7000)" opacity="0.35" d="M40.727 26.909c0 0.402-0.326 0.727-0.727 0.727s-0.727-0.326-0.727-0.727c0-0.402 0.326-0.727 0.727-0.727s0.727 0.326 0.727 0.727z"></path>
<path fill="#dc7000" style="fill: var(--color1, #dc7000)" opacity="0.35" d="M1.455 31.273c0 0.402-0.326 0.727-0.727 0.727s-0.727-0.326-0.727-0.727c0-0.402 0.326-0.727 0.727-0.727s0.727 0.326 0.727 0.727z"></path>
<path fill="#dc7000" style="fill: var(--color1, #dc7000)" opacity="0.35" d="M5.818 31.273c0 0.402-0.326 0.727-0.727 0.727s-0.727-0.326-0.727-0.727c0-0.402 0.326-0.727 0.727-0.727s0.727 0.326 0.727 0.727z"></path>
<path fill="#dc7000" style="fill: var(--color1, #dc7000)" opacity="0.35" d="M10.182 31.273c0 0.402-0.326 0.727-0.727 0.727s-0.727-0.326-0.727-0.727c0-0.402 0.326-0.727 0.727-0.727s0.727 0.326 0.727 0.727z"></path>
<path fill="#dc7000" style="fill: var(--color1, #dc7000)" opacity="0.35" d="M14.545 31.273c0 0.402-0.326 0.727-0.727 0.727s-0.727-0.326-0.727-0.727c0-0.402 0.326-0.727 0.727-0.727s0.727 0.326 0.727 0.727z"></path>
<path fill="#dc7000" style="fill: var(--color1, #dc7000)" opacity="0.35" d="M18.909 31.273c0 0.402-0.326 0.727-0.727 0.727s-0.727-0.326-0.727-0.727c0-0.402 0.326-0.727 0.727-0.727s0.727 0.326 0.727 0.727z"></path>
<path fill="#dc7000" style="fill: var(--color1, #dc7000)" opacity="0.35" d="M23.273 31.273c0 0.402-0.326 0.727-0.727 0.727s-0.727-0.326-0.727-0.727c0-0.402 0.326-0.727 0.727-0.727s0.727 0.326 0.727 0.727z"></path>
<path fill="#dc7000" style="fill: var(--color1, #dc7000)" opacity="0.35" d="M27.636 31.273c0 0.402-0.326 0.727-0.727 0.727s-0.727-0.326-0.727-0.727c0-0.402 0.326-0.727 0.727-0.727s0.727 0.326 0.727 0.727z"></path>
<path fill="#dc7000" style="fill: var(--color1, #dc7000)" opacity="0.35" d="M32 31.273c0 0.402-0.326 0.727-0.727 0.727s-0.727-0.326-0.727-0.727c0-0.402 0.326-0.727 0.727-0.727s0.727 0.326 0.727 0.727z"></path>
<path fill="#dc7000" style="fill: var(--color1, #dc7000)" opacity="0.35" d="M36.364 31.273c0 0.402-0.326 0.727-0.727 0.727s-0.727-0.326-0.727-0.727c0-0.402 0.326-0.727 0.727-0.727s0.727 0.326 0.727 0.727z"></path>
<path fill="#dc7000" style="fill: var(--color1, #dc7000)" opacity="0.35" d="M40.727 31.273c0 0.402-0.326 0.727-0.727 0.727s-0.727-0.326-0.727-0.727c0-0.402 0.326-0.727 0.727-0.727s0.727 0.326 0.727 0.727z"></path>
</symbol>
<symbol id="icon-smartphone-2-1" viewBox="0 0 32 32">
<path fill="#dc7000" style="fill: var(--color1, #dc7000)" d="M22.446 0.647h-12.891c-1.243 0-2.254 1.012-2.254 2.254v26.196c0 1.243 1.012 2.255 2.254 2.255h12.891c1.243 0 2.255-1.012 2.255-2.254v-26.197c0-1.243-1.012-2.254-2.254-2.254zM8.324 4.741h15.353v19.447h-15.353v-19.447zM9.554 1.671h12.891c0.679 0 1.231 0.552 1.231 1.231v0.816h-15.353v-0.816c0-0.679 0.552-1.231 1.231-1.231zM22.446 30.329h-12.891c-0.679 0-1.231-0.552-1.231-1.231v-3.887h15.353v3.887c0 0.679-0.552 1.231-1.231 1.231z"></path>
<path fill="#dc7000" style="fill: var(--color1, #dc7000)" d="M16 25.723c-1.129 0-2.047 0.918-2.047 2.047s0.918 2.047 2.047 2.047c1.129 0 2.047-0.918 2.047-2.047s-0.918-2.047-2.047-2.047zM16 28.794c-0.564 0-1.023-0.459-1.023-1.024s0.459-1.023 1.023-1.023c0.565 0 1.024 0.459 1.024 1.023s-0.459 1.024-1.024 1.024z"></path>
<path fill="#dc7000" style="fill: var(--color1, #dc7000)" d="M13.953 3.206h2.047c0.283 0 0.512-0.229 0.512-0.512s-0.229-0.512-0.512-0.512h-2.047c-0.283 0-0.512 0.229-0.512 0.512s0.229 0.512 0.512 0.512z"></path>
<path fill="#dc7000" style="fill: var(--color1, #dc7000)" d="M17.535 3.206h0.512c0.283 0 0.512-0.229 0.512-0.512s-0.229-0.512-0.512-0.512h-0.512c-0.283 0-0.512 0.229-0.512 0.512s0.229 0.512 0.512 0.512z"></path>
<path fill="#dc7000" style="fill: var(--color1, #dc7000)" d="M29.619 2.986c-0.2-0.2-0.524-0.2-0.724 0s-0.2 0.524 0 0.724c1.912 1.912 1.912 5.023 0 6.935-0.2 0.2-0.2 0.524 0 0.724 0.1 0.1 0.231 0.15 0.362 0.15s0.262-0.050 0.362-0.15c2.311-2.311 2.311-6.071 0-8.383z"></path>
<path fill="#dc7000" style="fill: var(--color1, #dc7000)" d="M27.464 4.15c-0.2-0.2-0.524-0.2-0.724 0s-0.2 0.524 0 0.724c0.633 0.633 0.981 1.476 0.981 2.374s-0.349 1.74-0.981 2.374c-0.2 0.2-0.2 0.524 0 0.724 0.1 0.1 0.231 0.15 0.362 0.15s0.262-0.050 0.362-0.15c0.826-0.826 1.281-1.926 1.281-3.097s-0.454-2.272-1.281-3.098z"></path>
<path fill="#dc7000" style="fill: var(--color1, #dc7000)" d="M3.105 3.709c0.2-0.2 0.2-0.524 0-0.724s-0.524-0.2-0.724 0c-2.311 2.311-2.311 6.071 0 8.383 0.1 0.1 0.231 0.15 0.362 0.15s0.262-0.050 0.362-0.15c0.2-0.2 0.2-0.523 0-0.724-1.912-1.912-1.912-5.023 0-6.935z"></path>
<path fill="#dc7000" style="fill: var(--color1, #dc7000)" d="M5.26 4.009c-0.2-0.2-0.524-0.2-0.724 0-0.827 0.826-1.281 1.926-1.281 3.097s0.455 2.271 1.281 3.098c0.1 0.1 0.231 0.15 0.362 0.15s0.262-0.050 0.362-0.15c0.2-0.2 0.2-0.524 0-0.724-0.633-0.633-0.982-1.476-0.982-2.374s0.348-1.74 0.982-2.374c0.2-0.2 0.2-0.524 0-0.724z"></path>
</symbol>
<symbol id="icon-ps4-1" viewBox="0 0 32 32">
<path fill="#dc7000" style="fill: var(--color1, #dc7000)" d="M6.725 11.393h-6.548v1.859h6.548c0.513 0 0.93 0.417 0.93 0.93s-0.417 0.93-0.93 0.93h-3.76c-1.538 0-2.789 1.251-2.789 2.789v2.789h1.859v-2.789c0-0.513 0.417-0.93 0.93-0.93h3.76c1.538 0 2.789-1.251 2.789-2.789s-1.251-2.789-2.789-2.789z"></path>
<path fill="#dc7000" style="fill: var(--color1, #dc7000)" d="M16.505 11.393c-1.538 0-2.789 1.251-2.789 2.789v3.718c0 0.513-0.417 0.93-0.93 0.93h-4.204v1.859h4.204c1.538 0 2.789-1.251 2.789-2.789v-3.718c0-0.513 0.417-0.93 0.93-0.93h4.204v-1.859h-4.204z"></path>
<path fill="#dc7000" style="fill: var(--color1, #dc7000)" d="M30.046 16.97v-3.718c0-1.025-0.834-1.859-1.859-1.859-0.352 0-0.695 0.099-0.992 0.287l-5.887 3.718c-0.543 0.343-0.867 0.931-0.867 1.572 0 1.025 0.834 1.859 1.859 1.859h5.887v1.859h1.859v-1.859h1.859v-1.859l-1.859-0zM28.187 16.97l-5.886-0 5.886-3.718v3.718z"></path>
</symbol>
<symbol id="icon-d-cube" viewBox="0 0 32 32">
<path fill="#dc7000" style="fill: var(--color1, #dc7000)" d="M31.352 27.45l-0.662-2.469c-0.086-0.322-0.417-0.512-0.738-0.426s-0.512 0.416-0.426 0.738l0.29 1.081-4.228-2.412v-10.023c0-0.216-0.115-0.415-0.302-0.522l-8.736-5.022v-4.773l0.779 0.779c0.235 0.235 0.617 0.235 0.852 0s0.235-0.617 0-0.852l-1.808-1.808c-0.235-0.236-0.621-0.232-0.852 0l-1.808 1.808c-0.235 0.235-0.235 0.617 0 0.852s0.617 0.235 0.852 0l0.779-0.779v4.774l-8.677 5.022c-0.186 0.108-0.301 0.306-0.301 0.521v9.926l-4.287 2.436 0.29-1.083c0.086-0.322-0.105-0.652-0.426-0.738s-0.652 0.105-0.738 0.426l-0.662 2.47c-0.084 0.313 0.104 0.661 0.444 0.743l2.451 0.657c0.324 0.087 0.653-0.107 0.738-0.426 0.086-0.321-0.105-0.652-0.426-0.738l-1.046-0.28 4.255-2.418 8.718 5.134c0.187 0.11 0.418 0.111 0.607 0.003l2.21-1.274c0.288-0.166 0.387-0.535 0.221-0.823s-0.535-0.387-0.823-0.221l-1.906 1.099-7.819-4.604 7.74-4.398 7.889 4.5-1.207 0.696c-0.288 0.166-0.387 0.535-0.221 0.823s0.535 0.387 0.823 0.221l1.818-1.048 4.18 2.385-1.047 0.28c-0.321 0.086-0.512 0.416-0.426 0.738 0.086 0.32 0.415 0.513 0.738 0.426l2.415-0.647c0.345-0.061 0.573-0.407 0.48-0.753zM24.383 23.274l-7.833-4.468v-9.022l7.833 4.503v8.987zM7.573 14.286l7.773-4.499v8.976l-7.773 4.417v-8.894z"></path>
<path fill="#dc7000" style="fill: var(--color1, #dc7000)" d="M20.527 27.472c0.333 0 0.603-0.27 0.603-0.602s-0.27-0.603-0.603-0.603c-0.333 0-0.602 0.27-0.602 0.603s0.27 0.602 0.602 0.602z"></path>
</symbol>
<symbol id="icon-vr-glasses-1" viewBox="0 0 32 32">
<path fill="#dc7000" style="fill: var(--color1, #dc7000)" d="M18.567 23.905c-1.686 0.563-3.546 0.563-5.237-0-0.474-0.158-0.985 0.099-1.143 0.572s0.098 0.985 0.572 1.143c1.030 0.343 2.111 0.514 3.191 0.514s2.161-0.171 3.188-0.514c0.473-0.158 0.729-0.67 0.571-1.143s-0.67-0.729-1.143-0.571z"></path>
<path fill="#dc7000" style="fill: var(--color1, #dc7000)" d="M26.477 6.531c-0.385-2.759-2.754-4.936-5.688-4.936h-1.032v-0.064c0-0.499-0.405-0.904-0.904-0.904h-5.808c-0.499 0-0.904 0.405-0.904 0.904v0.064h-1.032c-2.909 0-5.282 2.147-5.685 4.936-1.694 0.386-2.963 1.903-2.963 3.712v7.744c0 2.477 2.017 3.486 2.934 3.704 0.414 5.575 5.095 9.784 10.554 9.784 5.567 0 10.143-4.32 10.554-9.784 2.375-0.564 2.934-2.719 2.934-3.704v-7.744c0-1.808-1.267-3.325-2.96-3.711zM19.757 3.403h1.032c2.557 0 3.613 2.091 3.833 3.033h-4.865v-3.033zM13.949 2.435h4v4.001h-4v-4.001zM11.109 3.403h1.032v3.033h-4.862c0.586-2.455 2.811-3.033 3.829-3.033zM15.949 29.667c-4.46 0-8.273-3.379-8.73-7.872h4.457c1.109 0 2.194-0.449 2.977-1.233 0.005-0.005 0.009-0.009 0.014-0.014 0.34-0.332 0.806-0.523 1.283-0.523s0.943 0.19 1.283 0.523c0.005 0.005 0.009 0.009 0.014 0.014 0.783 0.784 1.868 1.233 2.977 1.233h4.456c-0.454 4.416-4.196 7.872-8.73 7.872zM27.629 17.987c0 1.119-0.912 2-2 2h-5.406c-0.626 0-1.239-0.251-1.684-0.689-0.005-0.005-0.010-0.010-0.015-0.015-0.678-0.677-1.616-1.066-2.575-1.066s-1.898 0.389-2.575 1.066c-0.005 0.005-0.010 0.010-0.015 0.015-0.445 0.438-1.058 0.689-1.684 0.689h-5.406c-1.085 0-2-0.878-2-2v-7.744c0-1.103 0.897-2 2-2h19.36c1.103 0 2 0.897 2 2v7.744h0z"></path>
</symbol>
<symbol id="icon-pc-1" viewBox="0 0 32 32">
<path fill="#dc7000" style="fill: var(--color1, #dc7000)" d="M3.091 12.902c0.137 0.001 0.269-0.053 0.367-0.15l2.065-2.065c0.202-0.202 0.202-0.531 0-0.733s-0.531-0.202-0.733 0l-2.065 2.065c-0.098 0.097-0.153 0.229-0.153 0.367s0.055 0.27 0.153 0.367c0.097 0.097 0.229 0.15 0.367 0.15z"></path>
<path fill="#dc7000" style="fill: var(--color1, #dc7000)" d="M3.091 16c0.137 0.001 0.269-0.053 0.367-0.15l5.163-5.164c0.202-0.202 0.202-0.531 0-0.733s-0.531-0.202-0.733 0l-5.163 5.163c-0.098 0.097-0.153 0.229-0.153 0.367s0.055 0.27 0.153 0.367c0.097 0.097 0.229 0.151 0.367 0.15z"></path>
<path fill="#dc7000" style="fill: var(--color1, #dc7000)" d="M29.941 0.509h-13.425c-0.856 0-1.549 0.694-1.549 1.549v5.68h-11.876c-1.426 0-2.582 1.156-2.582 2.582v13.425c0 1.426 1.156 2.582 2.582 2.582h5.68v2.065h-1.549c-0.856 0-1.549 0.694-1.549 1.549s0.694 1.549 1.549 1.549h22.719c0.855 0 1.549-0.694 1.549-1.549v-27.883c0-0.856-0.694-1.549-1.549-1.549zM3.091 8.771h18.589c0.856 0 1.549 0.694 1.549 1.549v12.392h-21.687v-12.392c0-0.856 0.694-1.549 1.549-1.549zM1.542 23.745h21.687c0 0.855-0.694 1.549-1.549 1.549h-18.589c-0.856 0-1.549-0.694-1.549-1.549zM9.804 26.327h5.164v2.065h-5.164v-2.065zM16.516 30.458h-9.294c-0.285 0-0.516-0.231-0.516-0.516s0.231-0.516 0.516-0.516h10.327c0.285 0 0.516 0.231 0.516 0.516s-0.231 0.516-0.516 0.516h-1.033zM30.458 29.941c0 0.285-0.231 0.516-0.516 0.516h-10.936c0.167-0.473 0.095-0.998-0.194-1.409s-0.76-0.655-1.262-0.656h-1.549v-2.065h5.68c1.426 0 2.582-1.156 2.582-2.582v-13.425c0-1.426-1.156-2.582-2.582-2.582h-5.68v-5.68c0-0.285 0.231-0.516 0.516-0.516h13.425c0.285 0 0.516 0.231 0.516 0.516v27.883z"></path>
<path fill="#dc7000" style="fill: var(--color1, #dc7000)" d="M28.392 3.091h-10.327c-0.57 0-1.033 0.462-1.033 1.033v1.033c0 0.57 0.462 1.033 1.033 1.033h10.327c0.57 0 1.033-0.462 1.033-1.033v-1.033c0-0.57-0.462-1.033-1.033-1.033zM18.065 5.157v-1.033h10.327v1.033h-10.327z"></path>
<path fill="#dc7000" style="fill: var(--color1, #dc7000)" d="M27.36 10.836c0.856 0 1.549-0.694 1.549-1.549s-0.694-1.549-1.549-1.549c-0.855 0-1.549 0.694-1.549 1.549s0.694 1.549 1.549 1.549zM27.36 8.771c0.285 0 0.516 0.231 0.516 0.516s-0.231 0.516-0.516 0.516c-0.285 0-0.516-0.231-0.516-0.516s0.231-0.516 0.516-0.516z"></path>
<path fill="#dc7000" style="fill: var(--color1, #dc7000)" d="M28.909 13.418c0-0.856-0.694-1.549-1.549-1.549s-1.549 0.694-1.549 1.549c0 0.855 0.694 1.549 1.549 1.549s1.549-0.694 1.549-1.549zM27.36 13.935c-0.285 0-0.516-0.231-0.516-0.516s0.231-0.516 0.516-0.516c0.285 0 0.516 0.231 0.516 0.516s-0.231 0.516-0.516 0.516z"></path>
<path fill="#dc7000" style="fill: var(--color1, #dc7000)" d="M20.647 27.36c-0.285 0-0.516 0.231-0.516 0.516v1.033c0 0.285 0.231 0.516 0.516 0.516s0.516-0.231 0.516-0.516v-1.033c0-0.285-0.231-0.516-0.516-0.516z"></path>
<path fill="#dc7000" style="fill: var(--color1, #dc7000)" d="M22.713 27.36c-0.285 0-0.516 0.231-0.516 0.516v1.033c0 0.285 0.231 0.516 0.516 0.516s0.516-0.231 0.516-0.516v-1.033c0-0.285-0.231-0.516-0.516-0.516z"></path>
<path fill="#dc7000" style="fill: var(--color1, #dc7000)" d="M24.778 27.36c-0.285 0-0.516 0.231-0.516 0.516v1.033c0 0.285 0.231 0.516 0.516 0.516s0.516-0.231 0.516-0.516v-1.033c0-0.285-0.231-0.516-0.516-0.516z"></path>
<path fill="#dc7000" style="fill: var(--color1, #dc7000)" d="M26.843 27.36c-0.285 0-0.516 0.231-0.516 0.516v1.033c0 0.285 0.231 0.516 0.516 0.516s0.516-0.231 0.516-0.516v-1.033c0-0.285-0.231-0.516-0.516-0.516z"></path>
<path fill="#dc7000" style="fill: var(--color1, #dc7000)" d="M28.909 27.36c-0.285 0-0.516 0.231-0.516 0.516v1.033c0 0.285 0.231 0.516 0.516 0.516s0.516-0.231 0.516-0.516v-1.033c0-0.285-0.231-0.516-0.516-0.516z"></path>
</symbol>
<symbol id="icon-desktop" viewBox="0 0 32 32">
<path fill="#dc7000" style="fill: var(--color1, #dc7000)" d="M27.972 2.050h-23.848c-2.003 0.002-3.627 1.626-3.629 3.629v20.738c0.002 2.003 1.626 3.627 3.629 3.629h23.848c2.003-0.002 3.627-1.626 3.629-3.629v-20.738c-0.002-2.003-1.626-3.627-3.629-3.629zM30.564 26.417c-0.002 1.431-1.161 2.591-2.592 2.592h-23.848c-1.431-0.002-2.591-1.161-2.592-2.592v-20.738c0.002-1.431 1.161-2.591 2.592-2.592h23.848c1.431 0.002 2.59 1.161 2.592 2.592v20.738z"></path>
<path fill="#dc7000" style="fill: var(--color1, #dc7000)" d="M27.972 6.197h-23.848c-0.859 0-1.555 0.696-1.555 1.555v18.664c0 0.859 0.696 1.555 1.555 1.555h23.848c0.859 0 1.555-0.696 1.555-1.555v-18.664c0-0.859-0.696-1.555-1.555-1.555zM16.048 16.496l-5.646-3.040 5.646-3.040 5.646 3.040-5.646 3.040zM22.269 14.323v6.079l-5.703 3.072v-6.079l5.703-3.072zM15.529 17.396v6.079l-5.703-3.072v-6.079l5.703 3.072zM3.605 7.753c0-0.286 0.232-0.518 0.518-0.518h11.406v2.281l-6.467 3.484c-0.007 0.004-0.014 0.005-0.021 0.009-0.157 0.094-0.252 0.264-0.251 0.447v4.346l-5.184 2.592v-12.641zM28.49 26.417c0 0.286-0.232 0.518-0.518 0.518h-23.848c-0.286 0-0.518-0.232-0.518-0.518v-4.864l5.184-2.592v1.753c0 0.191 0.105 0.366 0.273 0.456l6.74 3.629c0.153 0.083 0.338 0.083 0.491 0l6.74-3.629c0.168-0.090 0.273-0.266 0.273-0.456v-1.753l5.184 2.592v4.864zM28.49 20.393l-5.184-2.592v-4.346c-0-0.182-0.096-0.351-0.253-0.445-0.007-0.004-0.015-0.006-0.021-0.009l-6.466-3.486v-2.281h11.406c0.286 0 0.518 0.232 0.518 0.518v12.641z"></path>
<path fill="#dc7000" style="fill: var(--color1, #dc7000)" d="M3.605 5.16c0.286 0 0.518-0.232 0.518-0.518s-0.232-0.518-0.518-0.518c-0.286 0-0.518 0.232-0.518 0.518s0.232 0.518 0.518 0.518z"></path>
<path fill="#dc7000" style="fill: var(--color1, #dc7000)" d="M5.679 5.16c0.286 0 0.518-0.232 0.518-0.518s-0.232-0.518-0.518-0.518c-0.286 0-0.518 0.232-0.518 0.518s0.232 0.518 0.518 0.518z"></path>
<path fill="#dc7000" style="fill: var(--color1, #dc7000)" d="M7.753 5.16c0.286 0 0.518-0.232 0.518-0.518s-0.232-0.518-0.518-0.518c-0.286 0-0.518 0.232-0.518 0.518s0.232 0.518 0.518 0.518z"></path>
<path fill="#dc7000" style="fill: var(--color1, #dc7000)" d="M20.714 5.16h7.258c0.286 0 0.518-0.232 0.518-0.518s-0.232-0.518-0.518-0.518h-7.258c-0.286 0-0.518 0.232-0.518 0.518s0.232 0.518 0.518 0.518z"></path>
</symbol>
<symbol id="icon-arrow-1" viewBox="0 0 32 32">
<path fill="#dc7000" style="fill: var(--color1, #dc7000)" d="M1.923 18.246c0.131 0.021 0.263 0.031 0.396 0.029h22.575l-0.492 0.229c-0.481 0.228-0.919 0.538-1.294 0.916l-6.331 6.331c-0.834 0.796-0.974 2.076-0.332 3.034 0.747 1.020 2.18 1.242 3.2 0.495 0.082-0.061 0.161-0.126 0.234-0.197l11.448-11.448c0.895-0.894 0.896-2.343 0.002-3.238-0.001-0.001-0.001-0.001-0.002-0.002l-11.448-11.448c-0.895-0.893-2.345-0.891-3.238 0.005-0.070 0.070-0.136 0.145-0.196 0.224-0.642 0.957-0.502 2.238 0.332 3.034l6.319 6.342c0.336 0.336 0.722 0.618 1.145 0.836l0.687 0.309h-22.484c-1.17-0.043-2.196 0.774-2.416 1.923-0.202 1.248 0.645 2.424 1.893 2.627z"></path>
</symbol>
<symbol id="icon-facebook" viewBox="0 0 32 32">
<path d="M19 6h5v-6h-5c-3.86 0-7 3.14-7 7v3h-4v6h4v16h6v-16h5l1-6h-6v-3c0-0.542 0.458-1 1-1z"></path>
</symbol>
<symbol id="icon-instagram" viewBox="0 0 32 32">
<path d="M16 2.881c4.275 0 4.781 0.019 6.462 0.094 1.563 0.069 2.406 0.331 2.969 0.55 0.744 0.288 1.281 0.638 1.837 1.194 0.563 0.563 0.906 1.094 1.2 1.838 0.219 0.563 0.481 1.412 0.55 2.969 0.075 1.688 0.094 2.194 0.094 6.463s-0.019 4.781-0.094 6.463c-0.069 1.563-0.331 2.406-0.55 2.969-0.288 0.744-0.637 1.281-1.194 1.837-0.563 0.563-1.094 0.906-1.837 1.2-0.563 0.219-1.413 0.481-2.969 0.55-1.688 0.075-2.194 0.094-6.463 0.094s-4.781-0.019-6.463-0.094c-1.563-0.069-2.406-0.331-2.969-0.55-0.744-0.288-1.281-0.637-1.838-1.194-0.563-0.563-0.906-1.094-1.2-1.837-0.219-0.563-0.481-1.413-0.55-2.969-0.075-1.688-0.094-2.194-0.094-6.463s0.019-4.781 0.094-6.463c0.069-1.563 0.331-2.406 0.55-2.969 0.288-0.744 0.638-1.281 1.194-1.838 0.563-0.563 1.094-0.906 1.838-1.2 0.563-0.219 1.412-0.481 2.969-0.55 1.681-0.075 2.188-0.094 6.463-0.094zM16 0c-4.344 0-4.887 0.019-6.594 0.094-1.7 0.075-2.869 0.35-3.881 0.744-1.056 0.412-1.95 0.956-2.837 1.85-0.894 0.888-1.438 1.781-1.85 2.831-0.394 1.019-0.669 2.181-0.744 3.881-0.075 1.713-0.094 2.256-0.094 6.6s0.019 4.887 0.094 6.594c0.075 1.7 0.35 2.869 0.744 3.881 0.413 1.056 0.956 1.95 1.85 2.837 0.887 0.887 1.781 1.438 2.831 1.844 1.019 0.394 2.181 0.669 3.881 0.744 1.706 0.075 2.25 0.094 6.594 0.094s4.888-0.019 6.594-0.094c1.7-0.075 2.869-0.35 3.881-0.744 1.050-0.406 1.944-0.956 2.831-1.844s1.438-1.781 1.844-2.831c0.394-1.019 0.669-2.181 0.744-3.881 0.075-1.706 0.094-2.25 0.094-6.594s-0.019-4.887-0.094-6.594c-0.075-1.7-0.35-2.869-0.744-3.881-0.394-1.063-0.938-1.956-1.831-2.844-0.887-0.887-1.781-1.438-2.831-1.844-1.019-0.394-2.181-0.669-3.881-0.744-1.712-0.081-2.256-0.1-6.6-0.1v0z"></path>
<path d="M16 7.781c-4.537 0-8.219 3.681-8.219 8.219s3.681 8.219 8.219 8.219 8.219-3.681 8.219-8.219c0-4.537-3.681-8.219-8.219-8.219zM16 21.331c-2.944 0-5.331-2.387-5.331-5.331s2.387-5.331 5.331-5.331c2.944 0 5.331 2.387 5.331 5.331s-2.387 5.331-5.331 5.331z"></path>
<path d="M26.462 7.456c0 1.060-0.859 1.919-1.919 1.919s-1.919-0.859-1.919-1.919c0-1.060 0.859-1.919 1.919-1.919s1.919 0.859 1.919 1.919z"></path>
</symbol>
<symbol id="icon-twitter" viewBox="0 0 32 32">
<path d="M32 7.075c-1.175 0.525-2.444 0.875-3.769 1.031 1.356-0.813 2.394-2.1 2.887-3.631-1.269 0.75-2.675 1.3-4.169 1.594-1.2-1.275-2.906-2.069-4.794-2.069-3.625 0-6.563 2.938-6.563 6.563 0 0.512 0.056 1.012 0.169 1.494-5.456-0.275-10.294-2.888-13.531-6.862-0.563 0.969-0.887 2.1-0.887 3.3 0 2.275 1.156 4.287 2.919 5.463-1.075-0.031-2.087-0.331-2.975-0.819 0 0.025 0 0.056 0 0.081 0 3.181 2.263 5.838 5.269 6.437-0.55 0.15-1.131 0.231-1.731 0.231-0.425 0-0.831-0.044-1.237-0.119 0.838 2.606 3.263 4.506 6.131 4.563-2.25 1.762-5.075 2.813-8.156 2.813-0.531 0-1.050-0.031-1.569-0.094 2.913 1.869 6.362 2.95 10.069 2.95 12.075 0 18.681-10.006 18.681-18.681 0-0.287-0.006-0.569-0.019-0.85 1.281-0.919 2.394-2.075 3.275-3.394z"></path>
</symbol>
<symbol id="icon-linkedin2" viewBox="0 0 32 32">
<path d="M12 12h5.535v2.837h0.079c0.77-1.381 2.655-2.837 5.464-2.837 5.842 0 6.922 3.637 6.922 8.367v9.633h-5.769v-8.54c0-2.037-0.042-4.657-3.001-4.657-3.005 0-3.463 2.218-3.463 4.509v8.688h-5.767v-18z"></path>
<path d="M2 12h6v18h-6v-18z"></path>
<path d="M8 7c0 1.657-1.343 3-3 3s-3-1.343-3-3c0-1.657 1.343-3 3-3s3 1.343 3 3z"></path>
</symbol>
</defs>
</svg>
